Coordinates
version=1
nRows=7
nColumns=46
inDegrees=yes

Units are S.I. units (second, meters, Newtons, ...)
Angles are in degrees.

endheader
time	pelvis_tilt	pelvis_list	pelvis_rotation	pelvis_tx	pelvis_ty	pelvis_tz	bb_angle	bb_tx	bb_ty	bb_tz	hip_flexion_r	hip_adduction_r	hip_rotation_r	knee_angle_r	knee_angle_r_beta	ankle_angle_r	subtalar_angle_r	mtp_angle_r	crank_angle_r	hip_flexion_l	hip_adduction_l	hip_rotation_l	knee_angle_l	knee_angle_l_beta	ankle_angle_l	subtalar_angle_l	mtp_angle_l	crank_angle_l	lumbar_extension	lumbar_bending	lumbar_rotation	arm_flex_r	arm_add_r	arm_rot_r	elbow_flex_r	pro_sup_r	wrist_flex_r	wrist_dev_r	arm_flex_l	arm_add_l	arm_rot_l	elbow_flex_l	pro_sup_l	wrist_flex_l	wrist_dev_l
      7.50000000	    -21.68156248	     -5.91862533	     -5.31893690	      0.16320611	      1.04781045	     -0.21951632	      0.00000000	      0.50000000	      0.00000000	      0.25000000	     88.89983053	      3.52757744	     -0.25538014	     91.98186708	      1.60538643	      4.11988668	    -10.59041354	      0.00000000	      0.00000000	     53.05178400	    -13.78747660	     -1.70874484	     66.61903695	      1.16272154	    -19.34104112	    -16.88568212	      0.00000000	      0.00000000	    -54.22567980	      2.00789669	      5.28381596	     85.39067548	     -9.08429959	     28.26815279	     58.95591246	     47.34558318	      0.00000000	      0.00000000	     81.14999844	    -17.68955416	     21.02291708	     61.40597876	     48.59169236	      0.00000000	      0.00000000
      7.50500000	    -21.60141884	     -5.41158004	     -5.07207323	      0.16401539	      1.04694863	     -0.21954226	      0.00000000	      0.50000000	      0.00000000	      0.25000000	     87.48982120	      3.22672360	      0.14333835	     89.74970181	      1.56642780	      4.70055821	    -10.73054610	      0.00000000	      0.00000000	     53.82334753	    -13.24536643	     -1.64497341	     69.08795621	      1.20581231	    -18.88205131	    -17.43840976	      0.00000000	      0.00000000	    -54.27903054	      1.69595474	      4.70842085	     85.22748004	     -9.19719717	     28.13329948	     59.00088247	     47.34672334	      0.00000000	      0.00000000	     81.17388928	    -17.49388355	     20.92287843	     61.69961285	     48.63010097	      0.00000000	      0.00000000
      7.51000000	    -21.53661575	     -5.05010374	     -4.72112081	      0.16485951	      1.04603395	     -0.21964091	      0.00000000	      0.50000000	      0.00000000	      0.25000000	     86.01049125	      2.80749439	      0.30758763	     87.41159151	      1.52562008	      5.14758756	    -10.83090813	      0.00000000	      0.00000000	     54.71165598	    -12.73114948	     -1.35753827	     71.59248431	      1.24952457	    -18.41620842	    -17.80201278	      0.00000000	      0.00000000	    -54.30004460	      1.50993607	      4.31920083	     85.04898486	     -9.45764421	     27.87798537	     59.14841250	     47.35554932	      0.00000000	      0.00000000	     81.17170812	    -17.17632986	     20.80438218	     62.10915695	     48.68601315	      0.00000000	      0.00000000
      7.51500000	    -21.54174730	     -4.75018160	     -4.34642878	      0.16568644	      1.04497610	     -0.21966798	      0.00000000	      0.50000000	      0.00000000	      0.25000000	     84.56366293	      2.36230748	      0.30829866	     85.01478381	      1.48378789	      5.34598905	    -11.03683171	      0.00000000	      0.00000000	     55.75104161	    -12.25327641	     -0.97791426	     74.13631742	      1.29392283	    -17.83213544	    -17.83439504	      0.00000000	      0.00000000	    -54.29448185	      1.45161181	      4.04514414	     84.82912035	     -9.80918790	     27.47036688	     59.73553541	     47.43390037	      0.00000000	      0.00000000	     80.89896863	    -16.76779855	     20.43779399	     62.71876415	     48.75542489	      0.00000000	      0.00000000
      7.52000000	    -21.46874069	     -4.11805145	     -4.06921437	      0.16673679	      1.04413750	     -0.21938338	      0.00000000	      0.50000000	      0.00000000	      0.25000000	     83.05855921	      1.91912602	      0.60992543	     82.64984281	      1.44251188	      5.44994045	    -11.16936915	      0.00000000	      0.00000000	     56.57346431	    -11.67345691	     -1.05659966	     76.53570689	      1.33580008	    -17.35660192	    -18.13020037	      0.00000000	      0.00000000	    -54.29201770	      1.02859145	      3.42402765	     84.56797571	    -10.00422538	     27.38895764	     59.87411504	     47.45940219	      0.00000000	      0.00000000	     80.89676005	    -16.56421675	     20.36282982	     62.89203966	     48.77678547	      0.00000000	      0.00000000
      7.52500000	    -21.41742889	     -3.59392960	     -3.72711741	      0.16778873	      1.04312651	     -0.21918904	      0.00000000	      0.50000000	      0.00000000	      0.25000000	     81.56523596	      1.39332847	      0.68699648	     80.26794483	      1.40093992	      5.26225610	    -11.67150733	      0.00000000	      0.00000000	     57.52892146	    -11.14865249	     -0.97760118	     79.01473952	      1.37906736	    -16.67893671	    -17.84640015	      0.00000000	      0.00000000	    -54.30552302	      0.74656981	      2.99860644	     84.15512447	    -10.53695206	     27.10179064	     60.93770112	     47.65779407	      0.00000000	      0.00000000	     80.59778673	    -16.11503722	     19.79569695	     63.49207106	     48.82966863	      0.00000000	      0.00000000
      7.53000000	    -21.28708726	     -2.86486496	     -3.28882274	      0.16878013	      1.04247576	     -0.21902903	      0.00000000	      0.50000000	      0.00000000	      0.25000000	     80.00425693	      0.71087093	      1.04477993	     77.98034767	      1.36101382	      5.08349091	    -11.61851092	      0.00000000	      0.00000000	     58.36403626	    -10.39100122	     -1.04799866	     81.31055281	      1.41913686	    -16.33776426	    -18.04424355	      0.00000000	      0.00000000	    -54.35003091	      0.43165549	      2.23863629	     83.98449579	    -10.68813919	     27.07458333	     61.03053675	     47.68040967	      0.00000000	      0.00000000	     80.65832521	    -15.97647264	     19.77992692	     63.54090469	     48.83635120	      0.00000000	      0.00000000
